<svg id="e719a601-bdc2-4874-b9d1-be8e5087fe60" data-name="Layer 1" xmlns="http://www.w3.org/2000/svg" viewBox="0 0 24 24"><defs><style>.eb4464b3-bd58-4d9e-9ed7-60397fe339bf{fill:#fff;}.a25a5553-891f-4641-a55f-63429888ee01{fill:#1c1c1c;stroke:#fff;stroke-miterlimit:10;stroke-width:0.09px;}</style></defs><title>ark-logo24</title><g id="a3408470-efbc-48ee-88dc-02e0176ee729" data-name="Layer 2"><path class="eb4464b3-bd58-4d9e-9ed7-60397fe339bf" d="M20.68,24H3.32A3.32,3.32,0,0,1,0,20.68V3.32A3.32,3.32,0,0,1,3.32,0H20.68A3.32,3.32,0,0,1,24,3.32V20.68A3.32,3.32,0,0,1,20.68,24Z"/><path class="eb4464b3-bd58-4d9e-9ed7-60397fe339bf" d="M19.42,11.83c-.26,0-.51-.12-.78-.14s-.53,0-.79,0a2.07,2.07,0,0,0-1.06.73,3.64,3.64,0,0,0-.74.83.64.64,0,0,0,.31.07,8.3,8.3,0,0,1,.83.12,4.16,4.16,0,0,0,.92.13c0-.53.28-.72.78-.86a1.63,1.63,0,0,1,1.13.08,12.3,12.3,0,0,1,.95-1C20.45,11.82,19.93,11.87,19.42,11.83Z"/><path d="M19.42,11.78c-.23,0-.45-.1-.68-.13a4.87,4.87,0,0,0-.54,0,1.41,1.41,0,0,0-.85.22,7,7,0,0,0-.7.63,2.82,2.82,0,0,0-.64.74,0,0,0,0,0,0,.06,1.2,1.2,0,0,0,.42.08c.23,0,.45.07.68.11a4.63,4.63,0,0,0,1,.14s0,0,.05,0a.8.8,0,0,1,.56-.76,1.82,1.82,0,0,1,1.28,0h0a12.3,12.3,0,0,1,.95-1s0-.08,0-.08c-.52,0-1,.05-1.54,0a0,0,0,0,0,0,.09c.51,0,1,0,1.54,0l0-.08a3.63,3.63,0,0,0-.49.47c-.12.13-.32.46-.51.46s-.37-.11-.56-.11a1.58,1.58,0,0,0-.57.09,1.23,1.23,0,0,0-.58.34.87.87,0,0,0-.15.34c0,.06,0,.13-.05.16s-.31,0-.38,0a11.35,11.35,0,0,0-1.3-.21.3.3,0,0,1-.23-.06.83.83,0,0,1,.08-.12,2,2,0,0,1,.19-.22c.14-.14.29-.27.43-.42A1.87,1.87,0,0,1,18,11.73a4.07,4.07,0,0,1,.78,0c.21,0,.41.1.62.12C19.47,11.88,19.47,11.79,19.42,11.78Z"/><path class="eb4464b3-bd58-4d9e-9ed7-60397fe339bf" d="M17.82,11.69h0Z"/><path d="M17.82,11.73h.05s0,0,0-.05a0,0,0,0,0,0,0h0a.05.05,0,0,0,0,0s0,0,0,0h0s0-.06,0-.09h0a.05.05,0,0,0,0,0A.07.07,0,0,0,17.82,11.73Z"/><path class="eb4464b3-bd58-4d9e-9ed7-60397fe339bf" d="M21.08,10.53a7.67,7.67,0,0,0-.23-1.08,8.62,8.62,0,0,0-.28-1.14,5.09,5.09,0,0,0-.77.83,6.19,6.19,0,0,1-.87.9l.1,0,.13.1a2.71,2.71,0,0,0,.06.74c0,.24-.06.5,0,.72.32,0,.63,0,.95.06a2.36,2.36,0,0,0,.46,0c.2,0,.2-.06.34-.21s.27-.16.25-.39S21.09,10.7,21.08,10.53Z"/><path d="M21.13,10.53a7.7,7.7,0,0,0-.23-1.06,11.75,11.75,0,0,0-.29-1.17.05.05,0,0,0-.07,0,4.74,4.74,0,0,0-.75.8,6.6,6.6,0,0,1-.9.93s0,.09,0,.08l.06,0s0,0,.05,0,.06,0,.09.07l0-.05a2.17,2.17,0,0,0,.05.67c0,.27-.05.54,0,.81,0,0,0,0,0,0,.34,0,.67.05,1,.06a1,1,0,0,0,.62-.07c.07-.05.12-.13.19-.19a1.62,1.62,0,0,0,.19-.18c.14-.2-.05-.48-.07-.69,0-.06-.1-.06-.09,0s.11.34.12.51-.14.23-.24.33a.45.45,0,0,1-.36.2,3.47,3.47,0,0,1-.56,0l-.6,0s-.11,0-.13,0,0-.1,0-.14,0-.19,0-.28c0-.33-.12-.66-.06-1,0,0,0,0,0,0s-.12-.12-.26-.06,0,.05,0,.08a6.17,6.17,0,0,0,.87-.9,4.57,4.57,0,0,1,.76-.82l-.07,0a8.55,8.55,0,0,1,.27,1.11,8.27,8.27,0,0,1,.23,1.1C21,10.59,21.13,10.59,21.13,10.53Z"/><path class="eb4464b3-bd58-4d9e-9ed7-60397fe339bf" d="M15.87,9.63a1.5,1.5,0,0,1,0,.89,2.5,2.5,0,0,1-.15.38c-.07.14-.21.27-.27.41a2.73,2.73,0,0,0,.13.86c.06.33.09.65.15,1l0-.08,0,0c.23-.12.45-.74.57-1A6.82,6.82,0,0,0,16.8,11c.07-.28.4-.79.31-1.05s-.34-.43-.45-.65-.17-.42-.27-.63c-.19-.41-.17-.88-.34-1.29-.15.28-.24.57-.38.85s-.41.52-.46.8A1.67,1.67,0,0,1,15.87,9.63Z"/><path d="M15.83,9.64a1.59,1.59,0,0,1-.16,1.24c-.1.19-.29.33-.29.55a2.87,2.87,0,0,0,.12.65c.08.35.11.72.17,1.07a0,0,0,0,0,.08,0l0-.08h-.08l0,0a0,0,0,0,0,.06,0c.33-.21.45-.72.61-1.06.25-.53.43-1.08.65-1.63a.78.78,0,0,0,.09-.54c-.07-.23-.29-.39-.42-.6a4.13,4.13,0,0,1-.41-1,8,8,0,0,0-.23-1s-.06,0-.08,0c-.16.31-.26.66-.44,1a2.92,2.92,0,0,0-.41.7,0,0,0,0,0,0,0,1.7,1.7,0,0,1,.64.61s.1,0,.08-.05a1.4,1.4,0,0,0-.39-.45c-.05,0-.19-.1-.22-.15s0-.22.1-.32a4.73,4.73,0,0,0,.35-.56c.12-.25.21-.51.34-.76H16a5.9,5.9,0,0,1,.2.83,4.7,4.7,0,0,0,.29.82,2.29,2.29,0,0,0,.31.55.9.9,0,0,1,.27.47.91.91,0,0,1-.09.36c-.2.52-.37,1-.61,1.55-.09.19-.17.39-.26.59a4.29,4.29,0,0,1-.32.51s-.06,0-.08,0,0,.05,0,.08h.08c-.06-.36-.09-.72-.17-1.07s-.2-.58-.05-.82a3.16,3.16,0,0,0,.39-.78,1.56,1.56,0,0,0,0-.83C15.89,9.56,15.81,9.59,15.83,9.64Z"/><path class="eb4464b3-bd58-4d9e-9ed7-60397fe339bf" d="M16.63,8.44a9,9,0,0,1,1.48-.52c.29-.08.4-.34.58-.57s.36-.55.55-.81.38-.46.56-.7a3,3,0,0,0-.83.07,3.64,3.64,0,0,1-.81,0c-.29,0-.6-.06-.89-.11a3.28,3.28,0,0,1-.73-.12v.06c-.15,0-.2.42-.26.56a1.56,1.56,0,0,0-.14.33,2.3,2.3,0,0,0,.12.34A5.34,5.34,0,0,1,16.63,8.44Z"/><path d="M16.65,8.48a7.79,7.79,0,0,1,1.14-.42,1.18,1.18,0,0,0,.73-.4c.21-.28.39-.56.58-.85s.49-.62.73-.94c0,0,0-.06,0-.07a1.73,1.73,0,0,0-.64,0,4,4,0,0,1-.91.06c-.34,0-.68-.07-1-.12a1.94,1.94,0,0,1-.68-.11,0,0,0,0,0-.07,0v0s0,0,0,0-.05,0-.06.06a.83.83,0,0,0-.12.27,3.59,3.59,0,0,1-.12.35.58.58,0,0,0-.09.29,2.38,2.38,0,0,0,.13.29c.05.15.09.3.15.45a2.8,2.8,0,0,1,.22,1,0,0,0,1,0,.09,0A4.7,4.7,0,0,0,16.32,7c0-.1-.09-.19-.11-.29s.07-.26.12-.38.08-.47.23-.53,0,0,0,0V5.71l-.07,0a1.7,1.7,0,0,0,.59.1c.32,0,.63.09.95.12A4.22,4.22,0,0,0,19,6a2.62,2.62,0,0,1,.79-.07l0-.07c-.22.29-.47.56-.67.86s-.38.57-.58.85a.87.87,0,0,1-.37.34c-.17.07-.36.1-.54.16-.34.11-.67.24-1,.38C16.55,8.42,16.6,8.5,16.65,8.48Z"/><path class="eb4464b3-bd58-4d9e-9ed7-60397fe339bf" d="M14.74,16.13a6.24,6.24,0,0,1,.94-.68c.49-.33,1.13-.56,1.57-.92a5.63,5.63,0,0,0-1.34-1c-.39-.23-1.23-.54-1.42-1,0,0,0,0,.08,0l-.22-.22v.93A11.61,11.61,0,0,1,14.26,15c-.11.72-.42,1.38-.48,2.11A6.41,6.41,0,0,1,14.74,16.13Z"/><path d="M14.77,16.16a6.43,6.43,0,0,1,1.29-.89,9.24,9.24,0,0,0,1.22-.71s0-.05,0-.06a5.79,5.79,0,0,0-1.5-1.05c-.42-.22-1-.42-1.25-.86l0,.07h.06a0,0,0,0,0,0-.07l-.22-.22a0,0,0,0,0-.08,0c0,.53,0,1.06,0,1.59a7.06,7.06,0,0,1-.23,1.65,9.48,9.48,0,0,0-.34,1.47,0,0,0,0,0,.08,0,8.17,8.17,0,0,1,1-1,0,0,0,1,0-.06-.06,5.74,5.74,0,0,0-1,1l.08,0a9.42,9.42,0,0,1,.37-1.57,7.4,7.4,0,0,0,.2-1.55c0-.53,0-1.06,0-1.59l-.08,0,.22.22.05-.07-.1,0s-.05,0,0,.07a2,2,0,0,0,.94.72,8.74,8.74,0,0,1,1.41.84c.07.05.36.23.37.32s-.27.22-.33.26c-.24.14-.5.27-.75.4a6.17,6.17,0,0,0-1.37.94C14.67,16.14,14.73,16.2,14.77,16.16Z"/><path class="eb4464b3-bd58-4d9e-9ed7-60397fe339bf" d="M18.2,18.36c-.17-.41-.35-.85-.5-1.27a10.53,10.53,0,0,1-.2-2.25c-.38.08-.69.62-1.05.81s-.77.44-1.13.69-.61.39-.9.59-.27.25-.43.34L13.94,17a1.18,1.18,0,0,0-.21.32l-.11,0a.21.21,0,0,0,.11,0,.62.62,0,0,0,.32.14L14,17.32a1.36,1.36,0,0,0,.66.33l-.22,0c-.12,0-.26,0-.39-.06v.06c0,.27.62.89.79,1.16.3.47.52,1,.79,1.47a15.81,15.81,0,0,0,1.52,2.33A11.43,11.43,0,0,1,17.55,21c.09-.21.17-.4.27-.6s.3-.4.32-.58c.06-.42-1-.95-1.38-1.15-.18-.11-.35-.2-.53-.29.8.28,1.57.62,2.34,1A2.87,2.87,0,0,0,18.2,18.36Zm-3.4-.66.19.07.15.07Z"/><path d="M18.24,18.35a8.24,8.24,0,0,1-.6-1.66c-.11-.61,0-1.23-.1-1.85a0,0,0,0,0-.06,0,1.71,1.71,0,0,0-.67.49,6.41,6.41,0,0,1-1.15.77c-.37.23-.74.48-1.1.72a2.82,2.82,0,0,0-.39.29c-.19.18-.15.17-.2-.06a0,0,0,0,0-.08,0c-.08.11-.19.31-.31.37s0,.09,0,.08a1.83,1.83,0,0,1,.42.13s.06,0,.06-.06,0-.15-.05-.22l-.08,0a1.53,1.53,0,0,0,.68.35.29.29,0,0,0,0-.09c-.2-.05-.41-.07-.61-.11,0,0-.06,0-.06.06a1.68,1.68,0,0,0,.4.74,6.68,6.68,0,0,1,.82,1.22,17.77,17.77,0,0,0,1.91,3.08s.07,0,.08,0a10.07,10.07,0,0,1,.59-2.08c.13-.27.49-.57.36-.89s-.45-.47-.69-.63-.8-.48-1.21-.69l0,.08c.79.28,1.56.62,2.33.94,0,0,.07,0,.07,0a3,3,0,0,0-.38-.94s-.1,0-.08.05.37.57.33.7-.19,0-.31,0l-.41-.17c-.51-.21-1-.42-1.54-.61,0,0-.08.06,0,.08.36.18.71.38,1,.59s1,.51.78,1c-.08.21-.26.39-.35.59a6.65,6.65,0,0,0-.28.69,7.3,7.3,0,0,0-.18.81s0,.38-.08.4-.26-.28-.33-.37a29.11,29.11,0,0,1-1.75-3,7.06,7.06,0,0,0-.66-.89c-.09-.1-.36-.39-.3-.55s0,0,.06,0a1.17,1.17,0,0,1,.48.09,0,0,0,1,0,0-.09,1.49,1.49,0,0,1-.64-.32s-.08,0-.08,0,0,.06,0,.08.13.12,0,.07-.12-.13-.3-.11a.31.31,0,0,1,0,.08c.17-.08.1-.12.22-.28s0-.09.06,0a.53.53,0,0,1,0,.12.05.05,0,0,0,.07,0c.26-.17.5-.39.76-.56l.81-.53c.31-.2.66-.36,1-.58a5.91,5.91,0,0,0,.52-.48c.08-.07.26-.29.39-.19s0,.46,0,.53a8.36,8.36,0,0,0,0,1,7.36,7.36,0,0,0,.63,1.87C18.18,18.43,18.27,18.4,18.24,18.35Z"/><path d="M14.78,17.74l.17.06.16.07.05-.08-.35-.14s-.05,0-.06,0a.06.06,0,0,0,0,.06l.33.13a0,0,0,0,0,0-.08l-.35-.14s-.05,0-.06,0A.09.09,0,0,0,14.78,17.74Z"/><path class="a25a5553-891f-4641-a55f-63429888ee01" d="M11.79,6.72a1.22,1.22,0,0,1,0,.9c-.1.29-.25.57-.32.86a2,2,0,0,0,.7,1.94,2.19,2.19,0,0,0,2.07.31A1.59,1.59,0,0,1,13,10.49a1.23,1.23,0,0,1-.54-1.09c.05-.6.59-1.07.63-1.66a1.29,1.29,0,0,0-.56-1.1,1.85,1.85,0,0,0-.78-.32,2.76,2.76,0,0,0-.4-.06c-.14,0-.16,0-.27.09A.6.6,0,0,1,11.79,6.72Z"/><path class="a25a5553-891f-4641-a55f-63429888ee01" d="M12.43,6a2.14,2.14,0,0,1,.91.9,1.6,1.6,0,0,1,0,1.08,3.43,3.43,0,0,1-.39.82c-.1.17-.25.44-.46.48A2.31,2.31,0,0,0,14,5.74a8.37,8.37,0,0,0-.79-.89,2,2,0,0,1-.55-1,1.89,1.89,0,0,1,.3-1.1,3.83,3.83,0,0,1,1.25-1.28,7.84,7.84,0,0,0-1.73.7,3,3,0,0,0-1.25,1.34,1.85,1.85,0,0,0,.16,1.78A3.75,3.75,0,0,0,12.43,6Z"/><path class="a25a5553-891f-4641-a55f-63429888ee01" d="M6.35,6.14c0,.7-.31,1.43-.09,2.1a1.35,1.35,0,0,0,1.62.84,1.75,1.75,0,0,1-1.09-.49,1.19,1.19,0,0,1-.16-1,6.23,6.23,0,0,1,.42-1,2,2,0,0,0,.23-1,1.53,1.53,0,0,0-1.15-1.2,3.5,3.5,0,0,0-1.73,0,1.78,1.78,0,0,1,1.4.55A1.94,1.94,0,0,1,6.35,6.14Z"/><path class="a25a5553-891f-4641-a55f-63429888ee01" d="M8.8,8.52A4.75,4.75,0,0,1,8.06,8a.73.73,0,0,1-.23-.81.53.53,0,0,1,.85-.1A1,1,0,0,0,8,6.47a.54.54,0,0,0-.62.37A1.22,1.22,0,0,0,7,7.68a1.23,1.23,0,0,0,.51,1.08,5.08,5.08,0,0,0,.93.39,2.35,2.35,0,0,1,1.3,1.36,2.41,2.41,0,0,1-.11,1.88A2.75,2.75,0,0,0,8.8,8.52Z"/><path class="a25a5553-891f-4641-a55f-63429888ee01" d="M8,15.63a2.42,2.42,0,0,0-.92.36,2.42,2.42,0,0,1-.92.36c-.79.08-1.09-.64-.69-1.24-.66,0-1.31,1.18-1.08,1.75a1.06,1.06,0,0,0,.85.59,1.66,1.66,0,0,0,1.19-.26c.49-.33.8-.91,1.34-1.15a1.28,1.28,0,0,1,1.53.47A1.29,1.29,0,0,0,8,15.63Z"/><path class="a25a5553-891f-4641-a55f-63429888ee01" d="M5.48,14.49a.44.44,0,0,1,.28.34c0,.22-.15.42-.17.65a.54.54,0,0,0,.56.54.7.7,0,0,0,.6-.56,1,1,0,0,0-.27-.81,1.58,1.58,0,0,0-.77-.42,1.86,1.86,0,0,0-1.33.1c-.27.14-.71.48-.58.83A1.45,1.45,0,0,1,5,14.45.79.79,0,0,1,5.48,14.49Z"/><path class="a25a5553-891f-4641-a55f-63429888ee01" d="M15.41,20.08a2.8,2.8,0,0,0-2-1.56c-.44-.07-.89,0-1.32-.11a1.16,1.16,0,0,1-1-.7c-.17-.43,0-1.68.41-1.66a.92.92,0,0,0-.63.36l.13-.26a1.35,1.35,0,0,0-.37.57,2.48,2.48,0,0,0-.41,1l.27-.52a3.69,3.69,0,0,0-.1,1.24,1.83,1.83,0,0,0,1,1.46,9.59,9.59,0,0,0,1.87.28,2.82,2.82,0,0,1,2.1,2.58A3.13,3.13,0,0,0,15.41,20.08Z"/><path class="a25a5553-891f-4641-a55f-63429888ee01" d="M13.37,16.1a1.77,1.77,0,0,0-.89-2.46A1.37,1.37,0,0,1,13,15.17a1.77,1.77,0,0,1-.82.71,1.25,1.25,0,0,0-.69.83,1.29,1.29,0,0,0,.14.88,2.1,2.1,0,0,0,.58.46,2.78,2.78,0,0,0,.71.13c.2,0,.42-.18.57-.35a.55.55,0,0,1-.58-.2.76.76,0,0,1-.11-.69C12.85,16.61,13.17,16.4,13.37,16.1Z"/><path class="a25a5553-891f-4641-a55f-63429888ee01" d="M11.88,15.34a1.12,1.12,0,0,0,.5-1.18v.31a.77.77,0,0,0-.54-.7.44.44,0,0,1,0,.62.51.51,0,0,1-.64,0,.63.63,0,0,1-.22-.62.79.79,0,0,1,.42-.52,1.84,1.84,0,0,1,.81-.12A1.86,1.86,0,0,0,13,13a.61.61,0,0,0,.37-.66.53.53,0,0,1-.44.43,1.78,1.78,0,0,1-.65,0,3.24,3.24,0,0,0-1.12,0,1.3,1.3,0,0,0-.9.62,1.75,1.75,0,0,0,.37,1.85A1.12,1.12,0,0,0,11.88,15.34Z"/></g></svg>